<mxfile host="app.diagrams.net" modified="2024-05-07T10:12:22.151Z" agent="Mozilla/5.0 (Windows NT 10.0; Win64; x64) AppleWebKit/537.36 (KHTML, like Gecko) Chrome/124.0.0.0 Safari/537.36" etag="ickdplEiz10H0lllgBUF" version="24.3.1" type="device">
  <diagram id="C5RBs43oDa-KdzZeNtuy" name="Page-1">
    <mxGraphModel dx="2150" dy="2126" grid="1" gridSize="10" guides="1" tooltips="1" connect="1" arrows="1" fold="1" page="1" pageScale="1" pageWidth="827" pageHeight="1169" math="0" shadow="0">
      <root>
        <mxCell id="WIyWlLk6GJQsqaUBKTNV-0" />
        <mxCell id="WIyWlLk6GJQsqaUBKTNV-1" parent="WIyWlLk6GJQsqaUBKTNV-0" />
        <mxCell id="I2DZ4lqy0teBuKp4XvpK-0" value="CardDeck" style="swimlane;fontStyle=1;align=center;verticalAlign=top;childLayout=stackLayout;horizontal=1;startSize=26;horizontalStack=0;resizeParent=1;resizeParentMax=0;resizeLast=0;collapsible=1;marginBottom=0;whiteSpace=wrap;html=1;" parent="WIyWlLk6GJQsqaUBKTNV-1" vertex="1">
          <mxGeometry x="195" y="270" width="160" height="110" as="geometry" />
        </mxCell>
        <mxCell id="I2DZ4lqy0teBuKp4XvpK-1" value="Cards: IEnumerabe&amp;lt;ICard&amp;gt;" style="text;strokeColor=none;fillColor=none;align=left;verticalAlign=top;spacingLeft=4;spacingRight=4;overflow=hidden;rotatable=0;points=[[0,0.5],[1,0.5]];portConstraint=eastwest;whiteSpace=wrap;html=1;" parent="I2DZ4lqy0teBuKp4XvpK-0" vertex="1">
          <mxGeometry y="26" width="160" height="26" as="geometry" />
        </mxCell>
        <mxCell id="I2DZ4lqy0teBuKp4XvpK-2" value="" style="line;strokeWidth=1;fillColor=none;align=left;verticalAlign=middle;spacingTop=-1;spacingLeft=3;spacingRight=3;rotatable=0;labelPosition=right;points=[];portConstraint=eastwest;strokeColor=inherit;" parent="I2DZ4lqy0teBuKp4XvpK-0" vertex="1">
          <mxGeometry y="52" width="160" height="8" as="geometry" />
        </mxCell>
        <mxCell id="I2DZ4lqy0teBuKp4XvpK-3" value="+PassCards(ICardDeck)" style="text;strokeColor=none;fillColor=none;align=left;verticalAlign=top;spacingLeft=4;spacingRight=4;overflow=hidden;rotatable=0;points=[[0,0.5],[1,0.5]];portConstraint=eastwest;whiteSpace=wrap;html=1;" parent="I2DZ4lqy0teBuKp4XvpK-0" vertex="1">
          <mxGeometry y="60" width="160" height="50" as="geometry" />
        </mxCell>
        <mxCell id="I2DZ4lqy0teBuKp4XvpK-5" value="«interface»&lt;br&gt;&lt;b&gt;ICard&lt;/b&gt;" style="html=1;whiteSpace=wrap;" parent="WIyWlLk6GJQsqaUBKTNV-1" vertex="1">
          <mxGeometry x="385" y="450" width="110" height="50" as="geometry" />
        </mxCell>
        <mxCell id="I2DZ4lqy0teBuKp4XvpK-6" value="Card" style="swimlane;fontStyle=1;align=center;verticalAlign=top;childLayout=stackLayout;horizontal=1;startSize=26;horizontalStack=0;resizeParent=1;resizeParentMax=0;resizeLast=0;collapsible=1;marginBottom=0;whiteSpace=wrap;html=1;" parent="WIyWlLk6GJQsqaUBKTNV-1" vertex="1">
          <mxGeometry x="360" y="550" width="160" height="104" as="geometry" />
        </mxCell>
        <mxCell id="I2DZ4lqy0teBuKp4XvpK-7" value="+value (string)&lt;div&gt;+suit (string)&lt;/div&gt;" style="text;strokeColor=none;fillColor=none;align=left;verticalAlign=top;spacingLeft=4;spacingRight=4;overflow=hidden;rotatable=0;points=[[0,0.5],[1,0.5]];portConstraint=eastwest;whiteSpace=wrap;html=1;" parent="I2DZ4lqy0teBuKp4XvpK-6" vertex="1">
          <mxGeometry y="26" width="160" height="44" as="geometry" />
        </mxCell>
        <mxCell id="I2DZ4lqy0teBuKp4XvpK-8" value="" style="line;strokeWidth=1;fillColor=none;align=left;verticalAlign=middle;spacingTop=-1;spacingLeft=3;spacingRight=3;rotatable=0;labelPosition=right;points=[];portConstraint=eastwest;strokeColor=inherit;" parent="I2DZ4lqy0teBuKp4XvpK-6" vertex="1">
          <mxGeometry y="70" width="160" height="8" as="geometry" />
        </mxCell>
        <mxCell id="I2DZ4lqy0teBuKp4XvpK-9" value="+ method(type): type" style="text;strokeColor=none;fillColor=none;align=left;verticalAlign=top;spacingLeft=4;spacingRight=4;overflow=hidden;rotatable=0;points=[[0,0.5],[1,0.5]];portConstraint=eastwest;whiteSpace=wrap;html=1;" parent="I2DZ4lqy0teBuKp4XvpK-6" vertex="1">
          <mxGeometry y="78" width="160" height="26" as="geometry" />
        </mxCell>
        <mxCell id="I2DZ4lqy0teBuKp4XvpK-10" value="" style="endArrow=block;dashed=1;endFill=0;endSize=12;html=1;rounded=0;entryX=0.5;entryY=1;entryDx=0;entryDy=0;exitX=0.5;exitY=0;exitDx=0;exitDy=0;" parent="WIyWlLk6GJQsqaUBKTNV-1" source="I2DZ4lqy0teBuKp4XvpK-6" target="I2DZ4lqy0teBuKp4XvpK-5" edge="1">
          <mxGeometry width="160" relative="1" as="geometry">
            <mxPoint x="250" y="480" as="sourcePoint" />
            <mxPoint x="460" y="380" as="targetPoint" />
          </mxGeometry>
        </mxCell>
        <mxCell id="I2DZ4lqy0teBuKp4XvpK-18" value="«interface»&lt;br&gt;&lt;b&gt;IPlayer&lt;/b&gt;" style="html=1;whiteSpace=wrap;" parent="WIyWlLk6GJQsqaUBKTNV-1" vertex="1">
          <mxGeometry x="635" y="-85" width="110" height="50" as="geometry" />
        </mxCell>
        <mxCell id="I2DZ4lqy0teBuKp4XvpK-20" value="" style="endArrow=block;dashed=1;endFill=0;endSize=12;html=1;rounded=0;entryX=0.5;entryY=1;entryDx=0;entryDy=0;" parent="WIyWlLk6GJQsqaUBKTNV-1" source="I2DZ4lqy0teBuKp4XvpK-41" target="I2DZ4lqy0teBuKp4XvpK-18" edge="1">
          <mxGeometry width="160" relative="1" as="geometry">
            <mxPoint x="710" y="270" as="sourcePoint" />
            <mxPoint x="785" y="250" as="targetPoint" />
          </mxGeometry>
        </mxCell>
        <mxCell id="I2DZ4lqy0teBuKp4XvpK-29" value="Round" style="swimlane;fontStyle=1;align=center;verticalAlign=top;childLayout=stackLayout;horizontal=1;startSize=26;horizontalStack=0;resizeParent=1;resizeParentMax=0;resizeLast=0;collapsible=1;marginBottom=0;whiteSpace=wrap;html=1;" parent="WIyWlLk6GJQsqaUBKTNV-1" vertex="1">
          <mxGeometry x="325" y="-170" width="230" height="220" as="geometry" />
        </mxCell>
        <mxCell id="I2DZ4lqy0teBuKp4XvpK-30" value="thisPlayer: IPlayer&lt;div&gt;nextPlayer: IPlayer&lt;/div&gt;&lt;div&gt;playersPool: IEnumerable&amp;lt;IPlayer&amp;gt;&lt;/div&gt;&lt;div&gt;cardBank: ICardDeck&lt;/div&gt;&lt;div&gt;cardsToCheck: ICardDeck&lt;/div&gt;&lt;div&gt;movesInRound: int&lt;/div&gt;&lt;div&gt;&lt;br&gt;&lt;/div&gt;&lt;div&gt;&lt;br&gt;&lt;/div&gt;" style="text;strokeColor=none;fillColor=none;align=left;verticalAlign=top;spacingLeft=4;spacingRight=4;overflow=hidden;rotatable=0;points=[[0,0.5],[1,0.5]];portConstraint=eastwest;whiteSpace=wrap;html=1;" parent="I2DZ4lqy0teBuKp4XvpK-29" vertex="1">
          <mxGeometry y="26" width="230" height="104" as="geometry" />
        </mxCell>
        <mxCell id="I2DZ4lqy0teBuKp4XvpK-31" value="" style="line;strokeWidth=1;fillColor=none;align=left;verticalAlign=middle;spacingTop=-1;spacingLeft=3;spacingRight=3;rotatable=0;labelPosition=right;points=[];portConstraint=eastwest;strokeColor=inherit;" parent="I2DZ4lqy0teBuKp4XvpK-29" vertex="1">
          <mxGeometry y="130" width="230" height="8" as="geometry" />
        </mxCell>
        <mxCell id="I2DZ4lqy0teBuKp4XvpK-32" value="+End()&lt;div&gt;+Start()&lt;/div&gt;&lt;div&gt;-AddCardsToBank(ICardDeck)&lt;/div&gt;&lt;div&gt;-CheckPlayersPool():&lt;/div&gt;" style="text;strokeColor=none;fillColor=none;align=left;verticalAlign=top;spacingLeft=4;spacingRight=4;overflow=hidden;rotatable=0;points=[[0,0.5],[1,0.5]];portConstraint=eastwest;whiteSpace=wrap;html=1;" parent="I2DZ4lqy0teBuKp4XvpK-29" vertex="1">
          <mxGeometry y="138" width="230" height="82" as="geometry" />
        </mxCell>
        <mxCell id="I2DZ4lqy0teBuKp4XvpK-41" value="Player" style="swimlane;fontStyle=1;align=center;verticalAlign=top;childLayout=stackLayout;horizontal=1;startSize=26;horizontalStack=0;resizeParent=1;resizeParentMax=0;resizeLast=0;collapsible=1;marginBottom=0;whiteSpace=wrap;html=1;" parent="WIyWlLk6GJQsqaUBKTNV-1" vertex="1">
          <mxGeometry x="610" y="130" width="160" height="98" as="geometry" />
        </mxCell>
        <mxCell id="I2DZ4lqy0teBuKp4XvpK-42" value="&lt;div&gt;&amp;nbsp;+name: String&lt;/div&gt;&lt;div&gt;&amp;nbsp;+cardHand: ICardDeck&lt;/div&gt;&lt;div&gt;&lt;br&gt;&lt;/div&gt;" style="text;strokeColor=none;fillColor=none;align=left;verticalAlign=top;spacingLeft=4;spacingRight=4;overflow=hidden;rotatable=0;points=[[0,0.5],[1,0.5]];portConstraint=eastwest;whiteSpace=wrap;html=1;" parent="I2DZ4lqy0teBuKp4XvpK-41" vertex="1">
          <mxGeometry y="26" width="160" height="54" as="geometry" />
        </mxCell>
        <mxCell id="I2DZ4lqy0teBuKp4XvpK-43" value="" style="line;strokeWidth=1;fillColor=none;align=left;verticalAlign=middle;spacingTop=-1;spacingLeft=3;spacingRight=3;rotatable=0;labelPosition=right;points=[];portConstraint=eastwest;strokeColor=inherit;" parent="I2DZ4lqy0teBuKp4XvpK-41" vertex="1">
          <mxGeometry y="80" width="160" height="18" as="geometry" />
        </mxCell>
        <mxCell id="I2DZ4lqy0teBuKp4XvpK-45" value="«interface»&lt;br&gt;&lt;b&gt;ICardDeck&lt;/b&gt;" style="html=1;whiteSpace=wrap;" parent="WIyWlLk6GJQsqaUBKTNV-1" vertex="1">
          <mxGeometry x="220" y="155" width="110" height="50" as="geometry" />
        </mxCell>
        <mxCell id="I2DZ4lqy0teBuKp4XvpK-46" value="" style="endArrow=block;dashed=1;endFill=0;endSize=12;html=1;rounded=0;exitX=0.5;exitY=0;exitDx=0;exitDy=0;entryX=0.5;entryY=1;entryDx=0;entryDy=0;" parent="WIyWlLk6GJQsqaUBKTNV-1" source="I2DZ4lqy0teBuKp4XvpK-0" target="I2DZ4lqy0teBuKp4XvpK-45" edge="1">
          <mxGeometry width="160" relative="1" as="geometry">
            <mxPoint x="300" y="240" as="sourcePoint" />
            <mxPoint x="460" y="240" as="targetPoint" />
          </mxGeometry>
        </mxCell>
        <mxCell id="I2DZ4lqy0teBuKp4XvpK-56" value="1" style="endArrow=open;html=1;endSize=12;startArrow=diamondThin;startSize=14;startFill=0;edgeStyle=orthogonalEdgeStyle;align=left;verticalAlign=bottom;rounded=0;" parent="WIyWlLk6GJQsqaUBKTNV-1" source="I2DZ4lqy0teBuKp4XvpK-41" target="I2DZ4lqy0teBuKp4XvpK-45" edge="1">
          <mxGeometry x="-1" y="3" relative="1" as="geometry">
            <mxPoint x="500" y="160" as="sourcePoint" />
            <mxPoint x="660" y="160" as="targetPoint" />
          </mxGeometry>
        </mxCell>
        <mxCell id="I2DZ4lqy0teBuKp4XvpK-57" value="1" style="endArrow=open;html=1;endSize=12;startArrow=diamondThin;startSize=14;startFill=1;edgeStyle=orthogonalEdgeStyle;align=left;verticalAlign=bottom;rounded=0;entryX=0.5;entryY=0;entryDx=0;entryDy=0;" parent="WIyWlLk6GJQsqaUBKTNV-1" source="I2DZ4lqy0teBuKp4XvpK-0" target="I2DZ4lqy0teBuKp4XvpK-5" edge="1">
          <mxGeometry x="-1" y="3" relative="1" as="geometry">
            <mxPoint x="500" y="450" as="sourcePoint" />
            <mxPoint x="660" y="450" as="targetPoint" />
          </mxGeometry>
        </mxCell>
        <mxCell id="I2DZ4lqy0teBuKp4XvpK-59" value="1" style="endArrow=open;html=1;endSize=12;startArrow=diamondThin;startSize=14;startFill=1;edgeStyle=orthogonalEdgeStyle;align=left;verticalAlign=bottom;rounded=0;" parent="WIyWlLk6GJQsqaUBKTNV-1" source="I2DZ4lqy0teBuKp4XvpK-29" target="I2DZ4lqy0teBuKp4XvpK-45" edge="1">
          <mxGeometry x="-1" y="3" relative="1" as="geometry">
            <mxPoint x="370" y="170" as="sourcePoint" />
            <mxPoint x="530" y="170" as="targetPoint" />
            <Array as="points">
              <mxPoint x="440" y="103" />
              <mxPoint x="310" y="103" />
            </Array>
          </mxGeometry>
        </mxCell>
        <mxCell id="I2DZ4lqy0teBuKp4XvpK-91" value="Game" style="swimlane;fontStyle=1;align=center;verticalAlign=top;childLayout=stackLayout;horizontal=1;startSize=26;horizontalStack=0;resizeParent=1;resizeParentMax=0;resizeLast=0;collapsible=1;marginBottom=0;whiteSpace=wrap;html=1;" parent="WIyWlLk6GJQsqaUBKTNV-1" vertex="1">
          <mxGeometry x="330" y="-490" width="220" height="200" as="geometry" />
        </mxCell>
        <mxCell id="I2DZ4lqy0teBuKp4XvpK-92" value="+winners: IEnumerable&amp;lt;IPlayer&amp;gt;&lt;div&gt;+currentRound: Round&lt;/div&gt;&lt;div&gt;+loser: IPlayer&lt;/div&gt;&lt;div&gt;+cardDeck: ICardDeck&lt;/div&gt;&lt;div&gt;&lt;br&gt;&lt;/div&gt;" style="text;strokeColor=none;fillColor=none;align=left;verticalAlign=top;spacingLeft=4;spacingRight=4;overflow=hidden;rotatable=0;points=[[0,0.5],[1,0.5]];portConstraint=eastwest;whiteSpace=wrap;html=1;" parent="I2DZ4lqy0teBuKp4XvpK-91" vertex="1">
          <mxGeometry y="26" width="220" height="84" as="geometry" />
        </mxCell>
        <mxCell id="I2DZ4lqy0teBuKp4XvpK-93" value="" style="line;strokeWidth=1;fillColor=none;align=left;verticalAlign=middle;spacingTop=-1;spacingLeft=3;spacingRight=3;rotatable=0;labelPosition=right;points=[];portConstraint=eastwest;strokeColor=inherit;" parent="I2DZ4lqy0teBuKp4XvpK-91" vertex="1">
          <mxGeometry y="110" width="220" height="8" as="geometry" />
        </mxCell>
        <mxCell id="I2DZ4lqy0teBuKp4XvpK-94" value="+Start(IEnumerable&amp;lt;IPlayer&amp;gt;, ICardDeck)&lt;div&gt;+End()&lt;/div&gt;&lt;div&gt;+StartNewRound()&lt;/div&gt;&lt;div&gt;+DealCards()&lt;/div&gt;" style="text;strokeColor=none;fillColor=none;align=left;verticalAlign=top;spacingLeft=4;spacingRight=4;overflow=hidden;rotatable=0;points=[[0,0.5],[1,0.5]];portConstraint=eastwest;whiteSpace=wrap;html=1;" parent="I2DZ4lqy0teBuKp4XvpK-91" vertex="1">
          <mxGeometry y="118" width="220" height="82" as="geometry" />
        </mxCell>
        <mxCell id="I2DZ4lqy0teBuKp4XvpK-96" value="1" style="endArrow=open;html=1;endSize=12;startArrow=diamondThin;startSize=14;startFill=1;edgeStyle=orthogonalEdgeStyle;align=left;verticalAlign=bottom;rounded=0;" parent="WIyWlLk6GJQsqaUBKTNV-1" source="I2DZ4lqy0teBuKp4XvpK-91" edge="1">
          <mxGeometry x="-1" y="3" relative="1" as="geometry">
            <mxPoint x="500" y="-130" as="sourcePoint" />
            <mxPoint x="690" y="-90" as="targetPoint" />
            <Array as="points">
              <mxPoint x="690" y="-320" />
            </Array>
          </mxGeometry>
        </mxCell>
        <mxCell id="I2DZ4lqy0teBuKp4XvpK-99" value="1" style="endArrow=open;html=1;endSize=12;startArrow=diamondThin;startSize=14;startFill=1;edgeStyle=orthogonalEdgeStyle;align=left;verticalAlign=bottom;rounded=0;" parent="WIyWlLk6GJQsqaUBKTNV-1" source="I2DZ4lqy0teBuKp4XvpK-29" target="I2DZ4lqy0teBuKp4XvpK-18" edge="1">
          <mxGeometry x="-1" y="3" relative="1" as="geometry">
            <mxPoint x="500" y="-130" as="sourcePoint" />
            <mxPoint x="660" y="-130" as="targetPoint" />
          </mxGeometry>
        </mxCell>
        <mxCell id="I2DZ4lqy0teBuKp4XvpK-100" value="1" style="endArrow=open;html=1;endSize=12;startArrow=diamondThin;startSize=14;startFill=1;edgeStyle=orthogonalEdgeStyle;align=left;verticalAlign=bottom;rounded=0;" parent="WIyWlLk6GJQsqaUBKTNV-1" source="I2DZ4lqy0teBuKp4XvpK-91" target="I2DZ4lqy0teBuKp4XvpK-45" edge="1">
          <mxGeometry x="-1" y="3" relative="1" as="geometry">
            <mxPoint x="330" y="-400" as="sourcePoint" />
            <mxPoint x="240" y="225" as="targetPoint" />
            <Array as="points">
              <mxPoint x="240" y="-310" />
            </Array>
          </mxGeometry>
        </mxCell>
        <mxCell id="I2DZ4lqy0teBuKp4XvpK-101" value="1" style="endArrow=open;html=1;endSize=12;startArrow=diamondThin;startSize=14;startFill=0;edgeStyle=orthogonalEdgeStyle;align=left;verticalAlign=bottom;rounded=0;" parent="WIyWlLk6GJQsqaUBKTNV-1" source="I2DZ4lqy0teBuKp4XvpK-91" target="I2DZ4lqy0teBuKp4XvpK-29" edge="1">
          <mxGeometry x="-1" y="3" relative="1" as="geometry">
            <mxPoint x="480" y="-150" as="sourcePoint" />
            <mxPoint x="640" y="-150" as="targetPoint" />
          </mxGeometry>
        </mxCell>
        <mxCell id="AtFAacmgTt2TNNpNODs7-0" value="&lt;u style=&quot;&quot;&gt;MoveManager&lt;/u&gt;" style="swimlane;fontStyle=1;align=center;verticalAlign=top;childLayout=stackLayout;horizontal=1;startSize=26;horizontalStack=0;resizeParent=1;resizeParentMax=0;resizeLast=0;collapsible=1;marginBottom=0;whiteSpace=wrap;html=1;" parent="WIyWlLk6GJQsqaUBKTNV-1" vertex="1">
          <mxGeometry x="30" y="-480" width="180" height="100" as="geometry" />
        </mxCell>
        <mxCell id="AtFAacmgTt2TNNpNODs7-2" value="" style="line;strokeWidth=1;fillColor=none;align=left;verticalAlign=middle;spacingTop=-1;spacingLeft=3;spacingRight=3;rotatable=0;labelPosition=right;points=[];portConstraint=eastwest;strokeColor=inherit;" parent="AtFAacmgTt2TNNpNODs7-0" vertex="1">
          <mxGeometry y="26" width="180" height="8" as="geometry" />
        </mxCell>
        <mxCell id="AtFAacmgTt2TNNpNODs7-3" value="+MoreCards(IPlayer)&lt;div&gt;+Believe(IPlayer)&lt;/div&gt;&lt;div&gt;+DontBelieve(IPlayer)&lt;/div&gt;&lt;div&gt;&lt;br&gt;&lt;/div&gt;" style="text;strokeColor=none;fillColor=none;align=left;verticalAlign=top;spacingLeft=4;spacingRight=4;overflow=hidden;rotatable=0;points=[[0,0.5],[1,0.5]];portConstraint=eastwest;whiteSpace=wrap;html=1;" parent="AtFAacmgTt2TNNpNODs7-0" vertex="1">
          <mxGeometry y="34" width="180" height="66" as="geometry" />
        </mxCell>
      </root>
    </mxGraphModel>
  </diagram>
</mxfile>
